# xmcd
#
# Track frame offsets:
#	150
#	3007
#	10870
#	24146
#	30957
#	42990
#	53455
#	59893
#	70052
#	82159
#	97300
#	108685
#	133505
#	147324
#	171868
#	176452
#	189944
#
# Disc length: 2758 seconds
#
# Revision: 1
# Processed by: cddbd v1.5.2PL0 Copyright (c) Steve Scherf et al.
# Submitted via: audiograbber 1.83.01
#
DISCID=db0ac411
DTITLE=Varios Artistas - Canta Mi Tierra I
DYEAR=2008
DGENRE=Latin
TTITLE0=Tema De Presentacion
TTITLE1=Quirino Con Su Tres
TTITLE2=Un Meneito
TTITLE3=Son De La Loma
TTITLE4=Que Bonita Es Cuba
TTITLE5=Longina
TTITLE6=Desesperacion
TTITLE7=El Manisero
TTITLE8=La Cachimba De San Juan
TTITLE9=Que Te Pedi
TTITLE10=Princesa De La Noche
TTITLE11=Bigote De Gato
TTITLE12=Mamarrach¡
TTITLE13=Atares Y Sus Castillos
TTITLE14=Te Acuerdas De Mi
TTITLE15=Y Tu Que Has Hecho
TTITLE16=Babalu
EXTD=
EXTT0=
EXTT1=
EXTT2=
EXTT3=
EXTT4=
EXTT5=
EXTT6=
EXTT7=
EXTT8=
EXTT9=
EXTT10=
EXTT11=
EXTT12=
EXTT13=
EXTT14=
EXTT15=
EXTT16=
PLAYORDER=
